STARTFONT 2.1
FONT WH:/gn/phr/ast-xfonts/plunk.ast
SIZE 28 75 75
FONTBOUNDINGBOX 26 21 0 0
STARTPROPERTIES 3
FONT_DESCENT 9
FONT_ASCENT 21
COPYRIGHT "Public domain font.  Share and enjoy."
ENDPROPERTIES
CHARS 95
STARTCHAR C000
ENCODING 0
SWIDTH 714 0
DWIDTH 20 0
BBX 20 30 0 -9
BITMAP
c30c30
e79e70
3cf3c0
186180
3cf3c0
e79e70
c30c30
e79e70
3cf3c0
186180
3cf3c0
e79e70
c30c30
e79e70
3cf3c0
186180
3cf3c0
e79e70
c30c30
e79e70
3cf3c0
186180
3cf3c0
e79e70
c30c30
e79e70
3cf3c0
186180
3cf3c0
e79e70
ENDCHAR
STARTCHAR C040
ENCODING 32
SWIDTH 714 0
DWIDTH 20 0
BBX 20 30 0 -9
BITMAP
0000
0000
0000
0000
0000
0000
0000
0000
0000
0000
0000
0000
0000
0000
0000
0000
c003
c003
c003
ffff
ffff
0000
0000
0000
0000
0000
0000
0000
0000
0000
ENDCHAR
STARTCHAR !
ENCODING 33
SWIDTH 642 0
DWIDTH 18 0
BBX 18 30 0 -9
BITMAP
0000
0300
0780
0780
0300
0300
0300
6318
fffc
fffc
6318
0300
0300
0300
0300
0300
0300
0300
0300
0300
0300
0000
0000
0000
0000
0000
0000
0000
0000
0000
ENDCHAR
STARTCHAR "
ENCODING 34
SWIDTH 392 0
DWIDTH 11 0
BBX 11 30 0 -9
BITMAP
00
00
7c
fe
c6
c6
c6
fe
7c
00
00
00
00
00
00
00
00
00
00
00
00
00
00
00
00
00
00
00
00
00
ENDCHAR
STARTCHAR #
ENCODING 35
SWIDTH 857 0
DWIDTH 24 0
BBX 24 30 0 -9
BITMAP
000000
000000
000000
000000
000000
000000
000000
000000
000f00
1c3fc0
7f70e0
e3e070
c1c030
c1c030
e3e070
7f70e0
1c3fc0
000f00
000000
000000
000000
000000
000000
000000
000000
000000
000000
000000
000000
000000
ENDCHAR
STARTCHAR $
ENCODING 36
SWIDTH 571 0
DWIDTH 16 0
BBX 16 30 0 -9
BITMAP
0000
0000
0000
0000
00c0
00c0
0180
0180
1fc0
3fe0
7370
e330
c300
c600
c600
e630
7670
3fe0
1f80
0c00
0c00
1800
1800
0000
0000
0000
0000
0000
0000
0000
ENDCHAR
STARTCHAR %
ENCODING 37
SWIDTH 607 0
DWIDTH 17 0
BBX 17 30 0 -9
BITMAP
0000
0000
0000
0000
0000
0000
0000
0700
0700
0700
0000
0000
fff8
fff8
0000
0000
0700
0700
0700
0000
0000
0000
0000
0000
0000
0000
0000
0000
0000
0000
ENDCHAR
STARTCHAR &
ENCODING 38
SWIDTH 750 0
DWIDTH 21 0
BBX 21 30 0 -9
BITMAP
000000
000000
01c000
01c000
036000
036000
063000
063000
063000
0c1800
0c1800
180c00
180c00
300600
300600
300600
600300
600300
c00180
c00180
c00180
000000
000000
000000
000000
000000
000000
000000
000000
000000
ENDCHAR
STARTCHAR '
ENCODING 39
SWIDTH 285 0
DWIDTH 8 0
BBX 8 30 0 -9
BITMAP
00
00
00
00
00
00
00
00
00
00
60
f0
f0
60
00
00
00
00
00
00
00
00
00
00
00
00
00
00
00
00
ENDCHAR
STARTCHAR (
ENCODING 40
SWIDTH 392 0
DWIDTH 11 0
BBX 11 30 0 -9
BITMAP
00
06
06
0c
0c
18
18
30
30
60
60
c0
60
60
30
30
18
18
0c
0c
06
06
00
00
00
00
00
00
00
00
ENDCHAR
STARTCHAR )
ENCODING 41
SWIDTH 392 0
DWIDTH 11 0
BBX 11 30 0 -9
BITMAP
00
c0
c0
60
60
30
30
18
18
0c
0c
06
0c
0c
18
18
30
30
60
60
c0
c0
00
00
00
00
00
00
00
00
ENDCHAR
STARTCHAR *
ENCODING 42
SWIDTH 285 0
DWIDTH 8 0
BBX 8 30 0 -9
BITMAP
00
00
00
00
00
00
00
00
00
00
60
f0
f0
60
00
00
00
00
00
00
00
00
00
00
00
00
00
00
00
00
ENDCHAR
STARTCHAR +
ENCODING 43
SWIDTH 642 0
DWIDTH 18 0
BBX 18 30 0 -9
BITMAP
0000
0000
0000
0000
0000
0000
0000
0300
0300
0300
0300
0300
fffc
fffc
0300
0300
0300
0300
0300
fffc
fffc
0000
0000
0000
0000
0000
0000
0000
0000
0000
ENDCHAR
STARTCHAR ,
ENCODING 44
SWIDTH 642 0
DWIDTH 18 0
BBX 18 30 0 -9
BITMAP
0000
0000
0000
0000
0000
0000
0000
ff80
ffe0
0070
0038
0018
001c
3ffc
3ffc
001c
0018
0038
0070
ffe0
ff80
0000
0000
0000
0000
0000
0000
0000
0000
0000
ENDCHAR
STARTCHAR -
ENCODING 45
SWIDTH 642 0
DWIDTH 18 0
BBX 18 30 0 -9
BITMAP
0000
0000
0000
0000
0000
0000
0000
fffc
fffc
0300
0300
0300
0300
0300
fffc
fffc
0300
0300
0300
0300
0300
0000
0000
0000
0000
0000
0000
0000
0000
0000
ENDCHAR
STARTCHAR .
ENCODING 46
SWIDTH 678 0
DWIDTH 19 0
BBX 19 30 0 -9
BITMAP
0000
0000
0000
0000
0000
0000
0000
0380
07c0
07c0
0380
0000
0000
0000
0000
0000
0000
701c
f83e
f83e
701c
0000
0000
0000
0000
0000
0000
0000
0000
0000
ENDCHAR
STARTCHAR /
ENCODING 47
SWIDTH 821 0
DWIDTH 23 0
BBX 23 30 0 -9
BITMAP
000000
000000
03f800
0ffe00
1c0700
380380
7007c0
600ec0
c01c60
c03860
c07060
c0e060
c1c060
c38060
c70060
6e00c0
7c01c0
380380
1c0700
0ffe00
03f800
000000
000000
000000
000000
000000
000000
000000
000000
000000
ENDCHAR
STARTCHAR 0
ENCODING 48
SWIDTH 821 0
DWIDTH 23 0
BBX 23 30 0 -9
BITMAP
000000
000000
03f800
0ffe00
1c0700
380380
7001c0
6000c0
c00060
c00060
c00060
c00060
c00060
c00060
c00060
6000c0
7001c0
380380
1c0700
0ffe00
03f800
000000
000000
000000
000000
000000
000000
000000
000000
000000
ENDCHAR
STARTCHAR 1
ENCODING 49
SWIDTH 821 0
DWIDTH 23 0
BBX 23 30 0 -9
BITMAP
000000
000000
ffffe0
ffffe0
c00060
c00060
c00060
c00060
c00060
c00060
c00060
c00060
c00060
c00060
c00060
c00060
c00060
c00060
c00060
ffffe0
ffffe0
000000
000000
000000
000000
000000
000000
000000
000000
000000
ENDCHAR
STARTCHAR 2
ENCODING 50
SWIDTH 857 0
DWIDTH 24 0
BBX 24 30 0 -9
BITMAP
000000
000000
006000
00f000
00f000
019800
019800
030c00
030c00
060600
060600
0c0300
0c0300
180180
180180
3000c0
3000c0
600060
600060
fffff0
fffff0
000000
000000
000000
000000
000000
000000
000000
000000
000000
ENDCHAR
STARTCHAR 3
ENCODING 51
SWIDTH 892 0
DWIDTH 25 0
BBX 25 30 0 -9
BITMAP
000000
002000
007000
00f800
01dc00
038e00
070700
0e0380
1c01c0
3800e0
700070
e00038
700070
3800e0
1c01c0
0e0380
070700
038e00
01dc00
00f800
007000
002000
000000
000000
000000
000000
000000
000000
000000
000000
ENDCHAR
STARTCHAR 4
ENCODING 52
SWIDTH 821 0
DWIDTH 23 0
BBX 23 30 0 -9
BITMAP
000000
000000
03f800
0ffe00
1ce700
38e380
70e1c0
60e0c0
c0e060
c0e060
ffffe0
ffffe0
ffffe0
c0e060
c0e060
60e0c0
70e1c0
38e380
1ce700
0ffe00
03f800
000000
000000
000000
000000
000000
000000
000000
000000
000000
ENDCHAR
STARTCHAR 5
ENCODING 53
SWIDTH 821 0
DWIDTH 23 0
BBX 23 30 0 -9
BITMAP
000000
000000
03f800
0ffe00
1c0700
380380
7001c0
6000c0
c00060
c00060
ffffe0
ffffe0
ffffe0
c00060
c00060
6000c0
7001c0
380380
1c0700
0ffe00
03f800
000000
000000
000000
000000
000000
000000
000000
000000
000000
ENDCHAR
STARTCHAR 6
ENCODING 54
SWIDTH 821 0
DWIDTH 23 0
BBX 23 30 0 -9
BITMAP
000000
000000
03f800
0ffe00
1c0700
380380
7c07c0
6e0ec0
c71c60
c3b860
c1f060
c0e060
c1f060
c3b860
c71c60
6e0ec0
7c07c0
380380
1c0700
0ffe00
03f800
000000
000000
000000
000000
000000
000000
000000
000000
000000
ENDCHAR
STARTCHAR 7
ENCODING 55
SWIDTH 714 0
DWIDTH 20 0
BBX 20 30 0 -9
BITMAP
0000
0000
07e0
1ff8
381c
6006
6006
c003
c003
c003
c003
c003
c003
c003
c003
c003
c003
c003
c003
c003
c003
0000
0000
0000
0000
0000
0000
0000
0000
0000
ENDCHAR
STARTCHAR 8
ENCODING 56
SWIDTH 750 0
DWIDTH 21 0
BBX 21 30 0 -9
BITMAP
000000
000000
000000
000000
008000
008000
01c000
01c000
03e000
03e000
ffff80
7fff00
1ffc00
0ff800
0ff800
1ffc00
1f7c00
3e3e00
380e00
200200
000000
000000
000000
000000
000000
000000
000000
000000
000000
000000
ENDCHAR
STARTCHAR 9
ENCODING 57
SWIDTH 392 0
DWIDTH 11 0
BBX 11 30 0 -9
BITMAP
00
00
00
00
00
00
00
00
00
38
7c
fe
fe
7c
38
00
00
00
00
00
00
00
00
00
00
00
00
00
00
00
ENDCHAR
STARTCHAR :
ENCODING 58
SWIDTH 607 0
DWIDTH 17 0
BBX 17 30 0 -9
BITMAP
0000
0000
0000
0000
0000
0000
0000
0000
0000
0000
7070
f8f8
f8f8
7070
0000
0000
0000
0000
0000
0000
0000
0000
0000
0000
0000
0000
0000
0000
0000
0000
ENDCHAR
STARTCHAR ;
ENCODING 59
SWIDTH 392 0
DWIDTH 11 0
BBX 11 30 0 -9
BITMAP
00
fe
fe
fe
fe
fe
fe
fe
fe
fe
fe
fe
fe
fe
fe
fe
fe
fe
fe
fe
fe
fe
00
00
00
00
00
00
00
00
ENDCHAR
STARTCHAR <
ENCODING 60
SWIDTH 714 0
DWIDTH 20 0
BBX 20 30 0 -9
BITMAP
0000
0000
0007
000e
0038
0070
01c0
0380
0e00
1c00
7000
e000
7000
1c00
0e00
0380
01c0
0070
0038
000e
0007
0000
0000
0000
ffff
ffff
0000
0000
0000
0000
ENDCHAR
STARTCHAR =
ENCODING 61
SWIDTH 642 0
DWIDTH 18 0
BBX 18 30 0 -9
BITMAP
0000
0000
0000
0000
0000
0000
000c
0018
0030
0060
fffc
fffc
0180
0300
0600
fffc
fffc
1800
3000
6000
c000
0000
0000
0000
0000
0000
0000
0000
0000
0000
ENDCHAR
STARTCHAR >
ENCODING 62
SWIDTH 714 0
DWIDTH 20 0
BBX 20 30 0 -9
BITMAP
0000
0000
e000
7000
1c00
0e00
0380
01c0
0070
0038
000e
0007
000e
0038
0070
01c0
0380
0e00
1c00
7000
e000
0000
0000
0000
ffff
ffff
0000
0000
0000
0000
ENDCHAR
STARTCHAR ?
ENCODING 63
SWIDTH 571 0
DWIDTH 16 0
BBX 16 30 0 -9
BITMAP
0000
0000
0600
0600
0000
0000
0000
0600
0600
0600
0600
0e00
1c00
3800
6000
e030
c030
e070
70e0
3fc0
1f80
0000
0000
0000
0000
0000
0000
0000
0000
0000
ENDCHAR
STARTCHAR @
ENCODING 64
SWIDTH 857 0
DWIDTH 24 0
BBX 24 30 0 -9
BITMAP
000000
000000
3e0600
7f0600
e30c00
c00c00
c01800
e31800
7f3000
3e3000
006000
006000
006000
00c3c0
00c7e0
018e70
018c30
030c30
030e70
0607e0
0603c0
000000
000000
000000
000000
000000
000000
000000
000000
000000
ENDCHAR
STARTCHAR A
ENCODING 65
SWIDTH 750 0
DWIDTH 21 0
BBX 21 30 0 -9
BITMAP
000000
000000
e00380
e00380
e00380
700700
700700
7fff00
3ffe00
380e00
380e00
1c1c00
1c1c00
1c1c00
0e3800
0e3800
077000
077000
077000
03e000
03e000
000000
000000
000000
000000
000000
000000
000000
000000
000000
ENDCHAR
STARTCHAR B
ENCODING 66
SWIDTH 642 0
DWIDTH 18 0
BBX 18 30 0 -9
BITMAP
0000
0000
0000
0000
0000
0000
0000
07fc
1ffc
3800
7000
e000
c000
fff0
fff0
c000
e000
7000
3800
1ffc
07fc
0000
0000
0000
0000
0000
0000
0000
0000
0000
ENDCHAR
STARTCHAR C
ENCODING 67
SWIDTH 714 0
DWIDTH 20 0
BBX 20 30 0 -9
BITMAP
0000
0000
07f0
1ffc
318e
6307
6303
c603
c600
c600
c600
c600
c600
c600
c600
c603
6303
6307
318e
1ffc
07f0
0000
0000
0000
0000
0000
0000
0000
0000
0000
ENDCHAR
STARTCHAR D
ENCODING 68
SWIDTH 857 0
DWIDTH 24 0
BBX 24 30 0 -9
BITMAP
000000
000000
fffff0
fffff0
600060
600060
3000c0
3000c0
180180
180180
0c0300
0c0300
060600
060600
030c00
030c00
019800
019800
00f000
00f000
006000
000000
000000
000000
000000
000000
000000
000000
000000
000000
ENDCHAR
STARTCHAR E
ENCODING 69
SWIDTH 607 0
DWIDTH 17 0
BBX 17 30 0 -9
BITMAP
0000
fff8
fff8
0038
0038
0038
0038
0038
0038
0038
7ff8
7ff8
0038
0038
0038
0038
0038
0038
0038
fff8
fff8
0000
0000
0000
0000
0000
0000
0000
0000
0000
ENDCHAR
STARTCHAR F
ENCODING 70
SWIDTH 678 0
DWIDTH 19 0
BBX 19 30 0 -9
BITMAP
0000
0000
3c00
7e00
c600
c300
0300
0180
0180
0380
03c0
06c0
06c0
0c60
0c60
1860
1830
3030
3033
601e
600c
0000
0000
0000
0000
0000
0000
0000
0000
0000
ENDCHAR
STARTCHAR G
ENCODING 71
SWIDTH 678 0
DWIDTH 19 0
BBX 19 30 0 -9
BITMAP
0000
0000
0000
0000
0000
0000
0000
07fe
1ffe
3800
7000
e000
c000
c000
c000
c000
e000
7000
3800
1ffe
07fe
0000
0000
0000
0000
0000
0000
0000
0000
0000
ENDCHAR
STARTCHAR H
ENCODING 72
SWIDTH 678 0
DWIDTH 19 0
BBX 19 30 0 -9
BITMAP
0000
0000
0000
0030
0030
0060
0060
07fe
1ffe
38c0
70c0
e0c0
c180
c180
c180
c180
e300
7300
3b00
1ffe
07fe
0600
0600
0c00
0c00
0000
0000
0000
0000
0000
ENDCHAR
STARTCHAR I
ENCODING 73
SWIDTH 678 0
DWIDTH 19 0
BBX 19 30 0 -9
BITMAP
0000
0000
0000
0000
0000
0000
0000
07fe
1ffe
3800
7000
e000
c000
c000
c000
c000
e000
7000
3800
1ffe
07fe
0000
0000
0000
7ffe
7ffe
0000
0000
0000
0000
ENDCHAR
STARTCHAR J
ENCODING 74
SWIDTH 678 0
DWIDTH 19 0
BBX 19 30 0 -9
BITMAP
0000
0000
0000
0000
0000
0000
0000
ffc0
fff0
0038
001c
000c
0006
0006
0006
0006
000c
001c
0038
fff0
ffc0
0000
0000
0000
0000
0000
0000
0000
0000
0000
ENDCHAR
STARTCHAR K
ENCODING 75
SWIDTH 678 0
DWIDTH 19 0
BBX 19 30 0 -9
BITMAP
0000
0000
0000
0060
0060
00c0
00c0
ffc0
fff0
01b8
019c
018c
0306
0306
0306
0306
060c
061c
0638
fff0
ffc0
0c00
0c00
1800
1800
0000
0000
0000
0000
0000
ENDCHAR
STARTCHAR L
ENCODING 76
SWIDTH 678 0
DWIDTH 19 0
BBX 19 30 0 -9
BITMAP
0000
0000
0000
0000
0000
0000
0000
ffc0
fff0
0038
001c
000c
0006
0006
0006
0006
000c
001c
0038
fff0
ffc0
0000
0000
0000
fffc
fffc
0000
0000
0000
0000
ENDCHAR
STARTCHAR M
ENCODING 77
SWIDTH 678 0
DWIDTH 19 0
BBX 19 30 0 -9
BITMAP
0000
0000
0000
0000
0000
0000
0000
0c18
0c18
0c18
0c18
1830
1830
1830
1830
3060
3060
3063
78c6
7ffc
6f38
6000
c000
c000
c000
c000
0000
0000
0000
0000
ENDCHAR
STARTCHAR N
ENCODING 78
SWIDTH 678 0
DWIDTH 19 0
BBX 19 30 0 -9
BITMAP
0000
0000
0000
0018
0018
0030
0030
07ff
1fff
3860
7060
e0c0
c0c0
fffc
fffc
c180
e180
7300
3b00
1fff
07ff
0600
0600
0c00
0c00
0000
0000
0000
0000
0000
ENDCHAR
STARTCHAR O
ENCODING 79
SWIDTH 857 0
DWIDTH 24 0
BBX 24 30 0 -9
BITMAP
000000
000000
000000
000000
000020
000070
0000e0
01f9c0
07ff80
0e0700
1c0f00
181d80
183980
187180
18e180
19c180
1b8180
0f0380
0e0700
1ffe00
39f800
700000
e00000
400000
000000
000000
000000
000000
000000
000000
ENDCHAR
STARTCHAR P
ENCODING 80
SWIDTH 928 0
DWIDTH 26 0
BBX 26 30 0 -9
BITMAP
000000
000000
000000
000000
000000
000000
000000
000000
00003c
0f00fc
3fc3c0
70ef80
e07c00
c03800
c03800
e07c00
70ef80
3fc3c0
0f00fc
00003c
000000
000000
000000
000000
000000
000000
000000
000000
000000
000000
ENDCHAR
STARTCHAR Q
ENCODING 81
SWIDTH 678 0
DWIDTH 19 0
BBX 19 30 0 -9
BITMAP
0000
0000
0000
0000
0000
0000
0c00
1800
3000
fffe
fffe
3000
1800
0c00
0060
0030
0018
fffe
fffe
0018
0030
0060
0000
0000
0000
0000
0000
0000
0000
0000
ENDCHAR
STARTCHAR R
ENCODING 82
SWIDTH 607 0
DWIDTH 17 0
BBX 17 30 0 -9
BITMAP
0000
0000
ffc0
fff0
cc38
cc18
cc18
cc18
cc18
cc38
cc70
cfe0
cfc0
cc60
cc60
cc30
cc30
cc18
cc18
cc0c
cc0c
0000
0000
0000
0000
0000
0000
0000
0000
0000
ENDCHAR
STARTCHAR S
ENCODING 83
SWIDTH 750 0
DWIDTH 21 0
BBX 21 30 0 -9
BITMAP
000000
000000
000000
000000
000000
000000
000000
1f0000
3f8380
71c700
e0fe00
007c00
000000
1f0000
3f8380
71c700
e0fe00
007c00
000000
000000
000000
000000
000000
000000
000000
000000
000000
000000
000000
000000
ENDCHAR
STARTCHAR T
ENCODING 84
SWIDTH 714 0
DWIDTH 20 0
BBX 20 30 0 -9
BITMAP
0000
0000
0180
0180
0180
0180
0180
0180
0180
0180
0180
0180
0180
0180
0180
0180
0180
0180
0180
ffff
ffff
0000
0000
0000
0000
0000
0000
0000
0000
0000
ENDCHAR
STARTCHAR U
ENCODING 85
SWIDTH 714 0
DWIDTH 20 0
BBX 20 30 0 -9
BITMAP
0000
0000
c003
c003
c003
c003
c003
c003
c003
c003
c003
c003
c003
c003
c003
c003
6006
6006
381c
1ff8
07e0
0000
0000
0000
0000
0000
0000
0000
0000
0000
ENDCHAR
STARTCHAR V
ENCODING 86
SWIDTH 750 0
DWIDTH 21 0
BBX 21 30 0 -9
BITMAP
000000
000000
c00180
c00180
c00180
600300
600300
300600
300600
300600
180c00
180c00
0c1800
0c1800
063000
063000
063000
036000
036000
01c000
01c000
000000
000000
000000
000000
000000
000000
000000
000000
000000
ENDCHAR
STARTCHAR W
ENCODING 87
SWIDTH 642 0
DWIDTH 18 0
BBX 18 30 0 -9
BITMAP
0000
0000
0000
0000
0000
fffc
fffc
0000
0000
0000
fffc
fffc
0000
0000
0000
fffc
fffc
0000
0000
0000
0000
0000
0000
0000
0000
0000
0000
0000
0000
0000
ENDCHAR
STARTCHAR X
ENCODING 88
SWIDTH 714 0
DWIDTH 20 0
BBX 20 30 0 -9
BITMAP
0000
0000
0000
0000
0000
0000
0000
e007
700e
381c
1c38
0e70
07e0
03c0
03c0
07e0
0e70
1c38
381c
700e
e007
0000
0000
0000
0000
0000
0000
0000
0000
0000
ENDCHAR
STARTCHAR Y
ENCODING 89
SWIDTH 821 0
DWIDTH 23 0
BBX 23 30 0 -9
BITMAP
000000
0000c0
0000c0
000180
000180
000300
000300
000600
000600
000c00
000c00
f81800
f81800
0c3000
0c3000
066000
066000
03c000
03c000
018000
018000
000000
000000
000000
000000
000000
000000
000000
000000
000000
ENDCHAR
STARTCHAR Z
ENCODING 90
SWIDTH 392 0
DWIDTH 11 0
BBX 11 30 0 -9
BITMAP
00
00
00
00
00
00
00
00
80
e0
f0
fc
fe
fc
f0
e0
80
00
00
00
00
00
00
00
00
00
00
00
00
00
ENDCHAR
STARTCHAR [
ENCODING 91
SWIDTH 607 0
DWIDTH 17 0
BBX 17 30 0 -9
BITMAP
0000
0000
0038
0038
0070
0070
00e0
01c0
0380
0e00
3c00
f000
3c00
0e00
0380
01c0
00e0
0070
0070
0038
0038
0000
0000
0000
0000
0000
0000
0000
0000
0000
ENDCHAR
STARTCHAR \
ENCODING 92
SWIDTH 571 0
DWIDTH 16 0
BBX 16 30 0 -9
BITMAP
0000
03f0
03f0
03f0
07e0
07e0
07e0
0fc0
0fc0
0fc0
1f80
1f80
1f80
3f00
3f00
3f00
7e00
7e00
7e00
fc00
fc00
fc00
0000
0000
0000
0000
0000
0000
0000
0000
ENDCHAR
STARTCHAR ]
ENCODING 93
SWIDTH 642 0
DWIDTH 18 0
BBX 18 30 0 -9
BITMAP
0000
0000
e000
e000
7000
7000
3800
1c00
0e00
0380
01f0
007c
01f0
0380
0e00
1c00
3800
7000
7000
e000
e000
0000
0000
0000
0000
0000
0000
0000
0000
0000
ENDCHAR
STARTCHAR ^
ENCODING 94
SWIDTH 428 0
DWIDTH 12 0
BBX 12 30 0 -9
BITMAP
00
00
00
00
00
00
18
18
18
18
18
18
18
18
18
99
db
7e
3c
18
18
00
00
00
00
00
00
00
00
00
ENDCHAR
STARTCHAR _
ENCODING 95
SWIDTH 678 0
DWIDTH 19 0
BBX 19 30 0 -9
BITMAP
0000
0000
0000
0000
0000
0000
0000
0000
0000
0060
0030
0018
fffe
fffe
0018
0030
0060
0000
0000
0000
0000
0000
0000
0000
0000
0000
0000
0000
0000
0000
ENDCHAR
STARTCHAR `
ENCODING 96
SWIDTH 571 0
DWIDTH 16 0
BBX 16 30 0 -9
BITMAP
00
00
00
00
00
00
00
00
00
00
00
00
00
00
00
00
00
00
00
00
00
00
00
00
00
00
00
00
00
00
ENDCHAR
STARTCHAR a
ENCODING 97
SWIDTH 750 0
DWIDTH 21 0
BBX 21 30 0 -9
BITMAP
000000
000000
1c0e00
381c00
7c1e00
7e1f80
7f0fc0
3f87e0
1fcde0
0ff8e0
1ff1c0
33f800
61fc00
f0fe00
fc7f00
fe3f80
7f1fc0
7f0fc0
7f07c0
7e0380
f80700
000000
000000
000000
000000
000000
000000
000000
000000
000000
ENDCHAR
STARTCHAR b
ENCODING 98
SWIDTH 821 0
DWIDTH 23 0
BBX 23 30 0 -9
BITMAP
000000
000000
000000
000000
000000
000000
000000
000000
000000
0f0600
1f8300
39e180
707fe0
e01fe0
400180
000300
000600
000000
000000
000000
000000
000000
000000
000000
000000
000000
000000
000000
000000
000000
ENDCHAR
STARTCHAR c
ENCODING 99
SWIDTH 821 0
DWIDTH 23 0
BBX 23 30 0 -9
BITMAP
000000
000000
03f800
0ffe00
1c0700
380380
7001c0
61f0c0
c3f860
c71c60
c60060
c60060
c60060
c71c60
c3f860
61f0c0
7001c0
380380
1c0700
0ffe00
03f800
000000
000000
000000
000000
000000
000000
000000
000000
000000
ENDCHAR
STARTCHAR d
ENCODING 100
SWIDTH 607 0
DWIDTH 17 0
BBX 17 30 0 -9
BITMAP
0000
0000
7000
7c00
0f00
0380
01c0
00e0
0060
0770
1ff0
3838
6018
e018
c018
c018
c018
6030
7070
3fe0
0f80
0000
0000
0000
0000
0000
0000
0000
0000
0000
ENDCHAR
STARTCHAR e
ENCODING 101
SWIDTH 750 0
DWIDTH 21 0
BBX 21 30 0 -9
BITMAP
000000
000000
000000
000000
000000
000000
000000
000000
000000
0f0000
3f8380
71c700
e0fe00
007c00
000000
000000
000000
ffff80
ffff80
000000
000000
000000
000000
000000
000000
000000
000000
000000
000000
000000
ENDCHAR
STARTCHAR f
ENCODING 102
SWIDTH 857 0
DWIDTH 24 0
BBX 24 30 0 -9
BITMAP
000000
000000
000000
000000
000000
000000
000000
000000
000000
040200
0e0700
1c0380
3801c0
fffff0
fffff0
3801c0
1c0380
0e0700
040200
000000
000000
000000
000000
000000
000000
000000
000000
000000
000000
000000
ENDCHAR
STARTCHAR g
ENCODING 103
SWIDTH 750 0
DWIDTH 21 0
BBX 21 30 0 -9
BITMAP
000000
000000
000000
000000
000000
000000
000000
006000
003000
001800
fffc00
fffe00
000700
000380
000700
fffe00
fffc00
001800
003000
006000
000000
000000
000000
000000
000000
000000
000000
000000
000000
000000
ENDCHAR
STARTCHAR h
ENCODING 104
SWIDTH 678 0
DWIDTH 19 0
BBX 19 30 0 -9
BITMAP
000000
000000
006000
006380
00ce00
00f800
03e000
0f8000
398000
e1fe00
03ff00
030300
030300
030300
060600
060600
060600
0c0c00
0c0c00
0c0c00
0c0c00
000000
000000
000000
000000
000000
000000
000000
000000
000000
ENDCHAR
STARTCHAR i
ENCODING 105
SWIDTH 464 0
DWIDTH 13 0
BBX 13 30 0 -9
BITMAP
ff80
ff80
c000
c000
c000
c000
c000
c000
c000
c000
c000
c000
c000
c000
c000
c000
c000
c000
c000
c000
c000
0000
0000
0000
0000
0000
0000
0000
0000
0000
ENDCHAR
STARTCHAR j
ENCODING 106
SWIDTH 464 0
DWIDTH 13 0
BBX 13 30 0 -9
BITMAP
ff80
ff80
0180
0180
0180
0180
0180
0180
0180
0180
0180
0180
0180
0180
0180
0180
0180
0180
0180
0180
0180
0000
0000
0000
0000
0000
0000
0000
0000
0000
ENDCHAR
STARTCHAR k
ENCODING 107
SWIDTH 464 0
DWIDTH 13 0
BBX 13 30 0 -9
BITMAP
c000
c000
c000
c000
c000
c000
c000
c000
c000
c000
c000
c000
c000
c000
c000
c000
c000
c000
c000
ff80
ff80
0000
0000
0000
0000
0000
0000
0000
0000
0000
ENDCHAR
STARTCHAR l
ENCODING 108
SWIDTH 464 0
DWIDTH 13 0
BBX 13 30 0 -9
BITMAP
0180
0180
0180
0180
0180
0180
0180
0180
0180
0180
0180
0180
0180
0180
0180
0180
0180
0180
0180
ff80
ff80
0000
0000
0000
0000
0000
0000
0000
0000
0000
ENDCHAR
STARTCHAR m
ENCODING 109
SWIDTH 392 0
DWIDTH 11 0
BBX 11 30 0 -9
BITMAP
00
00
c6
c6
c6
c6
c6
c6
c6
c6
c6
c6
c6
c6
c6
c6
c6
c6
c6
c6
c6
00
00
00
00
00
00
00
00
00
ENDCHAR
STARTCHAR n
ENCODING 110
SWIDTH 821 0
DWIDTH 23 0
BBX 23 30 0 -9
BITMAP
000000
000000
000000
000000
000000
000000
000000
000000
000000
ffffe0
ffffe0
000060
000060
000060
000060
000060
000060
000060
000000
000000
000000
000000
000000
000000
000000
000000
000000
000000
000000
000000
ENDCHAR
STARTCHAR o
ENCODING 111
SWIDTH 464 0
DWIDTH 13 0
BBX 13 30 0 -9
BITMAP
0000
0000
0000
0000
0000
0000
0000
3e00
7f00
e380
c180
c180
c180
e380
7f00
3e00
0000
0000
0000
0000
0000
0000
0000
0000
0000
0000
0000
0000
0000
0000
ENDCHAR
STARTCHAR p
ENCODING 112
SWIDTH 750 0
DWIDTH 21 0
BBX 21 30 0 -9
BITMAP
000000
000000
000000
000000
000000
c00000
c00000
c00000
c00000
c00000
ffff80
ffff80
c00000
c00000
c00000
c00000
c00000
000000
000000
000000
000000
000000
000000
000000
000000
000000
000000
000000
000000
000000
ENDCHAR
STARTCHAR q
ENCODING 113
SWIDTH 750 0
DWIDTH 21 0
BBX 21 30 0 -9
BITMAP
000000
000000
000000
000000
c00000
c00000
c00000
c00000
ffff80
ffff80
c00000
c00000
c00000
ffff80
ffff80
c00000
c00000
c00000
c00000
000000
000000
000000
000000
000000
000000
000000
000000
000000
000000
000000
ENDCHAR
STARTCHAR r
ENCODING 114
SWIDTH 821 0
DWIDTH 23 0
BBX 23 30 0 -9
BITMAP
000000
000000
03f800
0ffe00
1c0700
300180
6000c0
67f8c0
c7fc60
c60c60
c60c60
c7f860
c7fc60
c60c60
c60c60
660cc0
6000c0
300180
1c0700
0ffe00
03f800
000000
000000
000000
000000
000000
000000
000000
000000
000000
ENDCHAR
STARTCHAR s
ENCODING 115
SWIDTH 500 0
DWIDTH 14 0
BBX 14 30 0 -9
BITMAP
0000
0000
0000
0000
0000
0600
0e00
1f00
3f00
6d80
cd80
18c0
1800
1800
3000
3000
3000
6000
6000
0000
0000
0000
0000
0000
0000
0000
0000
0000
0000
0000
ENDCHAR
STARTCHAR t
ENCODING 116
SWIDTH 500 0
DWIDTH 14 0
BBX 14 30 0 -9
BITMAP
0000
0000
0000
0000
0000
1800
1c00
3e00
3f00
6d80
6cc0
c600
0600
0600
0300
0300
0300
0180
0180
0000
0000
0000
0000
0000
0000
0000
0000
0000
0000
0000
ENDCHAR
STARTCHAR u
ENCODING 117
SWIDTH 535 0
DWIDTH 15 0
BBX 15 30 0 -9
BITMAP
0000
0000
0000
0000
0000
0180
0180
0300
0300
0300
0600
0600
c600
6c60
6dc0
3f00
3e00
1c00
1800
0000
0000
0000
0000
0000
0000
0000
0000
0000
0000
0000
ENDCHAR
STARTCHAR v
ENCODING 118
SWIDTH 535 0
DWIDTH 15 0
BBX 15 30 0 -9
BITMAP
0000
0000
0000
0000
0000
3000
3000
1800
1800
1800
0c00
0c00
0c60
c6c0
76c0
1f80
0f80
0700
0300
0000
0000
0000
0000
0000
0000
0000
0000
0000
0000
0000
ENDCHAR
STARTCHAR w
ENCODING 119
SWIDTH 785 0
DWIDTH 22 0
BBX 22 30 0 -9
BITMAP
000000
000000
0071c0
00e380
01c700
038e00
071c00
0e3800
1c7000
38e000
71c000
e38000
71c000
38e000
1c7000
0e3800
071c00
038e00
01c700
00e380
0071c0
000000
000000
000000
000000
000000
000000
000000
000000
000000
ENDCHAR
STARTCHAR x
ENCODING 120
SWIDTH 785 0
DWIDTH 22 0
BBX 22 30 0 -9
BITMAP
000000
000000
e38000
71c000
38e000
1c7000
0e3800
071c00
038e00
01c700
00e380
0071c0
00e380
01c700
038e00
071c00
0e3800
1c7000
38e000
71c000
e38000
000000
000000
000000
000000
000000
000000
000000
000000
000000
ENDCHAR
STARTCHAR y
ENCODING 121
SWIDTH 464 0
DWIDTH 13 0
BBX 13 30 0 -9
BITMAP
0000
0000
0000
0000
0000
0000
0000
0000
0000
0000
0800
1c00
3e00
6300
c180
0000
0000
0000
0000
0000
0000
0000
0000
0000
0000
0000
0000
0000
0000
0000
ENDCHAR
STARTCHAR z
ENCODING 122
SWIDTH 750 0
DWIDTH 21 0
BBX 21 30 0 -9
BITMAP
000000
000000
000000
000000
000000
000000
000000
000000
000000
000000
1f0000
3f8380
71c700
e0fe00
007c00
000000
000000
000000
000000
000000
000000
000000
000000
000000
000000
000000
000000
000000
000000
000000
ENDCHAR
STARTCHAR {
ENCODING 123
SWIDTH 678 0
DWIDTH 19 0
BBX 19 30 0 -9
BITMAP
0000
0000
0000
0000
0000
0000
0000
0000
00c0
0060
0030
0018
fffe
fffe
0018
0030
0060
00c0
0000
0000
0000
0000
0000
0000
0000
0000
0000
0000
0000
0000
ENDCHAR
STARTCHAR |
ENCODING 124
SWIDTH 571 0
DWIDTH 16 0
BBX 16 30 0 -9
BITMAP
0000
0000
0000
0000
0000
0000
0000
0000
0000
0000
0000
0000
0000
0000
0000
0000
0000
0000
0000
0000
0000
0000
0000
0000
0000
0000
0000
0000
fff0
fff0
ENDCHAR
STARTCHAR }
ENCODING 125
SWIDTH 571 0
DWIDTH 16 0
BBX 16 30 0 -9
BITMAP
0000
0000
0000
0000
0000
0000
0000
0000
0000
0000
0000
0000
fff0
fff0
0000
0000
0000
0000
0000
0000
0000
0000
0000
0000
0000
0000
0000
0000
0000
0000
ENDCHAR
ENDFONT
